<?xml version="1.0" encoding="UTF-8"?>
<svg version="1.1" xmlns="http://www.w3.org/2000/svg" width="560" height="264">
<path d="M0 0 C184.8 0 369.6 0 560 0 C560 87.12 560 174.24 560 264 C375.2 264 190.4 264 0 264 C0 176.88 0 89.76 0 0 Z " fill="#FEFEFE" transform="translate(0,0)"/>
<path d="M0 0 C3.75660471 0.19523573 4.88440551 0.87702331 7.5078125 3.66796875 C8.3933957 4.83122339 9.26502315 6.00518922 10.125 7.1875 C11.09600232 8.47292211 12.06736653 9.75807091 13.0390625 11.04296875 C13.53051758 11.70216309 14.02197266 12.36135742 14.52832031 13.04052734 C16.80151539 16.06718025 19.15161476 19.03158045 21.5 22 C22.41841515 23.16761777 23.33638281 24.33558765 24.25390625 25.50390625 C24.70781738 26.08156738 25.16172852 26.65922852 25.62939453 27.25439453 C26.99238127 28.99029677 28.35381194 30.72740847 29.71484375 32.46484375 C30.62229502 33.62247486 31.52984713 34.78002695 32.4375 35.9375 C32.88359619 36.50662109 33.32969238 37.07574219 33.78930664 37.66210938 C36.24722808 40.79125102 38.72249609 43.905237 41.21875 47.00390625 C42.02421265 48.00466187 42.02421265 48.00466187 42.84594727 49.02563477 C43.8754044 50.30270485 44.90700193 51.57805377 45.94116211 52.85131836 C54 62.84746951 54 62.84746951 54 68 C40.2670496 71.21975392 26.46583415 73.76166841 12.5625 76.125 C9.51530368 76.64729338 6.4683211 77.17081923 3.42137146 77.69454956 C1.5471039 78.01625476 -0.32734256 78.33692034 -2.20201111 78.65628052 C-3.06403641 78.8033847 -3.92606171 78.95048889 -4.81420898 79.10205078 C-6.08081863 79.3181601 -6.08081863 79.3181601 -7.37301636 79.53863525 C-11.09103726 80.19161373 -14.79848504 80.89986997 -18.50526428 81.61373901 C-22.05137696 82.16278514 -25.41882431 82.13513871 -29 82 C-30.2064036 78.53569511 -29.79877172 76.63939986 -28.51220703 73.24511719 C-28.16078644 72.30182556 -27.80936584 71.35853394 -27.44729614 70.38665771 C-27.05476654 69.36702942 -26.66223694 68.34740112 -26.2578125 67.296875 C-25.85601776 66.22745667 -25.45422302 65.15803833 -25.04025269 64.05621338 C-23.74537018 60.61685621 -22.43549999 57.18343283 -21.125 53.75 C-20.28024478 51.51470255 -19.43648456 49.2790288 -18.59375 47.04296875 C-16.91332191 42.58790303 -15.22534886 38.13580256 -13.53222656 33.68554688 C-11.81199839 29.15730163 -10.11225194 24.62208962 -8.42871094 20.08007812 C-8.01869843 18.97617737 -7.60868591 17.87227661 -7.18624878 16.73492432 C-6.40796696 14.63660478 -5.63269158 12.53716692 -4.86087036 10.4364624 C-4.51345795 9.5012677 -4.16604553 8.566073 -3.80810547 7.60253906 C-3.50597137 6.78303772 -3.20383728 5.96353638 -2.89254761 5.11920166 C-2 3 -2 3 0 0 Z " fill="#3A2C92" transform="translate(493,97)"/>
<path d="M0 0 C4.83033798 0.44096427 8.80017007 2.07849944 13.109375 4.17578125 C14.12404343 4.65803162 14.12404343 4.65803162 15.15921021 5.15002441 C17.35947166 6.19735878 19.55468771 7.25483665 21.75 8.3125 C24.03849573 9.40563819 26.32818356 10.49624919 28.61801147 11.58659363 C30.16172568 12.32176793 31.70503941 13.05778374 33.24795532 13.79463196 C38.10789839 16.1125587 42.98429683 18.38979328 47.8828125 20.625 C49.07036133 21.16729248 50.25791016 21.70958496 51.48144531 22.26831055 C53.69541182 23.27574495 55.91084376 24.27996687 58.12792969 25.28051758 C59.11438477 25.73064209 60.10083984 26.1807666 61.1171875 26.64453125 C61.96909668 27.02971924 62.82100586 27.41490723 63.69873047 27.81176758 C66.01334116 29.00688855 67.9673383 30.37756 70 32 C68.64723478 35.12884758 67.27240577 36.86477285 64.5703125 38.92578125 C63.86745117 39.4674292 63.16458984 40.00907715 62.44042969 40.56713867 C61.67633789 41.14310791 60.91224609 41.71907715 60.125 42.3125 C58.93245605 43.2257605 58.93245605 43.2257605 57.71582031 44.1574707 C50.91977115 49.34724119 44.06890033 54.46579334 37.21484375 59.57861328 C31.56720054 63.79772194 25.98715551 68.0905211 20.48730469 72.50073242 C10.9574414 80.10078331 10.9574414 80.10078331 7.625 79.75 C6.820625 79.37875 6.820625 79.37875 6 79 C4.65777337 69.16176438 3.64163462 59.3312303 2.82519531 49.43652344 C2.02910082 39.94844003 1.02344853 30.48491565 -0.03491211 21.02270508 C-1.51284631 7.33682503 -1.51284631 7.33682503 -1 1 C-0.67 0.67 -0.34 0.34 0 0 Z " fill="#2AA361" transform="translate(464,12)"/>
<path d="M0 0 C1.85644531 0.16162109 1.85644531 0.16162109 4 1 C5.24511719 3.31884766 5.24511719 3.31884766 6.296875 6.4140625 C6.69471191 7.5572998 7.09254883 8.70053711 7.50244141 9.87841797 C7.91413574 11.11479004 8.32583008 12.35116211 8.75 13.625 C9.18396609 14.89387779 9.61936297 16.16226709 10.05615234 17.43017578 C10.94619647 20.01936152 11.82771452 22.61124045 12.70410156 25.20507812 C13.90396391 28.74073532 15.15881532 32.25480144 16.4296875 35.765625 C16.80125977 36.79993652 17.17283203 37.83424805 17.55566406 38.89990234 C18.25285933 40.8396333 18.95509577 42.77756194 19.66308594 44.71337891 C21.28267518 49.29322674 22.43994389 53.06285188 22 58 C14.5250056 57.45401595 7.28011248 56.43755954 -0.06640625 54.96875 C-1.56747169 54.67478333 -1.56747169 54.67478333 -3.09886169 54.37487793 C-5.19085945 53.96398979 -7.28233384 53.5504285 -9.37329102 53.13427734 C-12.58418656 52.49568693 -15.79679868 51.866358 -19.00976562 51.23828125 C-21.04958509 50.83647484 -23.08930252 50.43415002 -25.12890625 50.03125 C-26.09026993 49.84268433 -27.05163361 49.65411865 -28.04212952 49.45983887 C-28.92742844 49.28295532 -29.81272736 49.10607178 -30.72485352 48.92382812 C-31.5044191 48.76918091 -32.28398468 48.61453369 -33.08717346 48.4552002 C-35 48 -35 48 -37 47 C-36.49895039 42.5688425 -35.06423223 40.55626888 -32 37.375 C-28.78369506 33.94124048 -25.69992852 30.47805933 -22.75 26.8125 C-18.48323268 21.53913616 -14.06408436 16.41200645 -9.60449219 11.30200195 C-6.35283273 7.57418523 -3.15248268 3.81216887 0 0 Z " fill="#CA402E" transform="translate(426,49)"/>
<path d="M0 0 C6.67143775 0.11608438 11.31953714 1.06415879 16.4375 5.4375 C21.65807518 11.02307302 23.8132406 15.60050645 23.7265625 23.34375 C23.04127142 28.30748001 19.98547128 32.05218643 16.4375 35.4375 C17.06398438 35.90800781 17.69046875 36.37851563 18.3359375 36.86328125 C19.15320313 37.48589844 19.97046875 38.10851562 20.8125 38.75 C21.62460937 39.36488281 22.43671875 39.97976562 23.2734375 40.61328125 C25.4375 42.4375 25.4375 42.4375 27.4375 45.4375 C27.6875 48.5 27.6875 48.5 27.4375 51.4375 C26.7775 52.0975 26.1175 52.7575 25.4375 53.4375 C21.45290863 53.15149344 19.53053728 51.96200574 16.75 49.1875 C12.44288428 45.19332959 7.77339983 42.81022595 2.4375 40.4375 C2.46070313 41.42492187 2.48390625 42.41234375 2.5078125 43.4296875 C2.53488281 45.35167969 2.53488281 45.35167969 2.5625 47.3125 C2.58570313 48.58867187 2.60890625 49.86484375 2.6328125 51.1796875 C2.4375 54.4375 2.4375 54.4375 0.4375 56.4375 C-2.1875 56.0625 -2.1875 56.0625 -4.5625 55.4375 C-6.04440581 50.04553258 -6.92540081 44.94700513 -7.1953125 39.3515625 C-7.23687469 38.60973724 -7.27843689 37.86791199 -7.32125854 37.10360718 C-7.40709096 35.54582963 -7.4892514 33.98784572 -7.56787109 32.4296875 C-7.68686784 30.07500906 -7.8170229 27.7211582 -7.94921875 25.3671875 C-8.29470727 19.0693064 -8.6130232 12.76732766 -8.7421875 6.4609375 C-8.75749512 5.71505371 -8.77280273 4.96916992 -8.78857422 4.20068359 C-8.16891394 -0.63213124 -3.86554655 0.0708892 0 0 Z " fill="#1B1B1C" transform="translate(350.5625,121.5625)"/>
<path d="M0 0 C1.03125 -0.00773437 2.0625 -0.01546875 3.125 -0.0234375 C6.46007926 0.43876098 8.36575215 1.28675989 11 3.375 C11.375 7 11.375 7 11 10.375 C10 11.375 10 11.375 7.33984375 11.4375 C5.65568359 11.4065625 5.65568359 11.4065625 3.9375 11.375 C-1.16468632 11.33004682 -5.96495781 11.58518946 -11 12.375 C-11 16.995 -11 21.615 -11 26.375 C-9.185 25.88 -7.37 25.385 -5.5 24.875 C-0.45613747 23.61701537 3.82243126 22.89559549 9 23.375 C11 25.375 11 25.375 11.25 28.375 C11 31.375 11 31.375 9 33.375 C6.74977095 33.99673629 4.47342796 34.52605891 2.1875 35 C0.35251953 35.39058594 0.35251953 35.39058594 -1.51953125 35.7890625 C-5 36.375 -5 36.375 -10 36.375 C-9.67 40.995 -9.34 45.615 -9 50.375 C-6.85177734 50.35759766 -6.85177734 50.35759766 -4.66015625 50.33984375 C-2.79427213 50.33046745 -0.92838661 50.32136708 0.9375 50.3125 C1.88302734 50.30412109 2.82855469 50.29574219 3.80273438 50.28710938 C5.15141602 50.28227539 5.15141602 50.28227539 6.52734375 50.27734375 C7.35999756 50.27210693 8.19265137 50.26687012 9.05053711 50.26147461 C11 50.375 11 50.375 12 51.375 C12.1875 54.8125 12.1875 54.8125 12 58.375 C7.91838969 62.45661031 0.80266391 61.55838527 -4.6875 61.625 C-6.61142578 61.66367188 -6.61142578 61.66367188 -8.57421875 61.703125 C-12.16561023 61.35913767 -13.49106956 60.88999066 -16 58.375 C-19.67589007 51.60362356 -19.17313591 42.92796463 -19.31640625 35.40625 C-19.33718735 34.48533569 -19.35796844 33.56442139 -19.37937927 32.61560059 C-19.44425118 29.70213575 -19.50346682 26.78858839 -19.5625 23.875 C-19.60574467 21.88801263 -19.64936076 19.90103331 -19.69335938 17.9140625 C-19.79986772 13.0677908 -19.90130684 8.2214369 -20 3.375 C-6.17582071 -0.04726393 -6.17582071 -0.04726393 0 0 Z " fill="#1A1A1B" transform="translate(402,116.625)"/>
<path d="M0 0 C3.0625 1.8125 3.0625 1.8125 4.1875 4.3125 C4.0625 6.8125 4.0625 6.8125 2.95703125 8.44140625 C-0.47746253 10.92698835 -4.70181735 10.23851224 -8.80859375 10.30859375 C-12.52354876 10.90688238 -13.72439603 11.81638136 -15.9375 14.8125 C-15.9375 15.8025 -15.9375 16.7925 -15.9375 17.8125 C-14.93589844 17.83828125 -13.93429688 17.8640625 -12.90234375 17.890625 C0.84311883 18.40502257 0.84311883 18.40502257 6.0625 22.8125 C10.03381164 27.80209667 10.70095459 31.88976374 10.44921875 38.2265625 C9.7262209 43.06115417 7.21723573 45.65776427 3.875 49 C-3.09914733 53.4944505 -10.70919006 54.97159629 -18.9375 53.8125 C-22.26804982 52.17644044 -24.13682741 50.90432626 -26.3125 47.9375 C-27.14264066 45.11502177 -27.1917814 42.73673611 -26.9375 39.8125 C-26.2775 39.1525 -25.6175 38.4925 -24.9375 37.8125 C-22.5 37.9375 -22.5 37.9375 -19.9375 38.8125 C-19.504375 39.493125 -19.07125 40.17375 -18.625 40.875 C-16.94286486 43.24598039 -16.94286486 43.24598039 -13.125 43.25 C-8.33399732 43.00340427 -4.90621127 41.2562216 -1.0625 38.4375 C0.54678969 36.11297044 0.48651741 34.56861316 0.0625 31.8125 C-4.41339684 28.82856877 -8.89495087 29.46716277 -14.17578125 29.3515625 C-18.96489188 28.6652725 -22.35684527 26.89609032 -25.3125 23 C-26.77012392 17.89831629 -26.301177 13.96344531 -24 9.25 C-18.43835672 0.07485967 -10.2106899 -3.57686082 0 0 Z " fill="#1E1E1F" transform="translate(50.9375,122.1875)"/>
<path d="M0 0 C4.55555556 0.55555556 4.55555556 0.55555556 6 2 C6.23701239 4.85877909 6.42219182 7.69883297 6.5625 10.5625 C6.60568359 11.36880859 6.64886719 12.17511719 6.69335938 13.00585938 C6.79975262 15.00368805 6.90040888 17.0018207 7 19 C7.36762451 18.42443359 7.73524902 17.84886719 8.11401367 17.25585938 C9.78729311 14.6585301 11.48681732 12.07946046 13.1875 9.5 C13.76564453 8.59378906 14.34378906 7.68757813 14.93945312 6.75390625 C15.50986328 5.89667969 16.08027344 5.03945312 16.66796875 4.15625 C17.44563599 2.96225586 17.44563599 2.96225586 18.23901367 1.74414062 C20 0 20 0 22.58325195 -0.38476562 C25 0 25 0 27 2 C26.86247904 8.15024292 24.56417719 11.85998641 21.125 16.6875 C20.67769531 17.33783203 20.23039062 17.98816406 19.76953125 18.65820312 C17.97067176 21.26097769 16.20669659 23.76457173 14.1171875 26.14453125 C12.78787972 27.98652421 12.78787972 27.98652421 13.01953125 30.43359375 C14.29954372 33.78406464 16.11454268 35.57415413 18.6875 38.0625 C19.58597656 38.93519531 20.48445313 39.80789062 21.41015625 40.70703125 C23.45504049 42.51750945 25.27255013 43.91299612 27.625 45.25 C28.40875 45.8275 29.1925 46.405 30 47 C30.45067148 50.21908202 30.455276 52.08944799 29 55 C24.74761557 55.40498899 22.12809623 54.97708422 18.65234375 52.4140625 C10.00826446 45.01652893 10.00826446 45.01652893 8 41 C7.95101562 42.13179687 7.90203125 43.26359375 7.8515625 44.4296875 C7.77653486 45.91148339 7.70098703 47.393253 7.625 48.875 C7.57859375 49.99455078 7.57859375 49.99455078 7.53125 51.13671875 C7.2265625 56.7734375 7.2265625 56.7734375 5 59 C3.0625 58.9375 3.0625 58.9375 1 58 C-3.19717029 53.20441875 -2.41432585 47.43093136 -2.36328125 41.42578125 C-2.36377975 40.30560104 -2.36427826 39.18542084 -2.36479187 38.03129578 C-2.36245493 35.66855084 -2.35274893 33.30580324 -2.33618164 30.94311523 C-2.31251871 27.3153679 -2.31563254 23.68835213 -2.32226562 20.06054688 C-2.31669116 17.7656206 -2.30958275 15.47069742 -2.30078125 13.17578125 C-2.30169266 12.08622635 -2.30260406 10.99667145 -2.30354309 9.87409973 C-2.29401108 8.8693309 -2.28447906 7.86456207 -2.2746582 6.8293457 C-2.27005081 5.94285843 -2.26544342 5.05637115 -2.26069641 4.14302063 C-2 2 -2 2 0 0 Z " fill="#1B1B1C" transform="translate(101,120)"/>
<path d="M0 0 C0.69754395 -0.02143066 1.39508789 -0.04286133 2.11376953 -0.06494141 C5.26317832 -0.0854266 7.42817365 0.07274009 10.2109375 1.60546875 C11.75 3.25 11.75 3.25 12.125 5.8125 C11.75 8.25 11.75 8.25 9.75 10.25 C7.23429313 10.36951794 4.8223066 10.39041497 2.3125 10.3125 C-3.03731071 10.13410785 -3.03731071 10.13410785 -8.25 11.25 C-8.58 15.21 -8.91 19.17 -9.25 23.25 C-7.579375 22.92 -5.90875 22.59 -4.1875 22.25 C0.23922514 21.45136402 4.26371095 20.86818817 8.75 21.25 C10.75 23.25 10.75 23.25 10.875 26.375 C10.83375 27.32375 10.7925 28.2725 10.75 29.25 C6.94726926 31.63171031 2.85996803 31.90510945 -1.5 32.375 C-2.24507812 32.46136719 -2.99015625 32.54773438 -3.7578125 32.63671875 C-5.58777846 32.84786867 -7.41879879 33.04984545 -9.25 33.25 C-8.92 37.87 -8.59 42.49 -8.25 47.25 C-6.785625 47.085 -5.32125 46.92 -3.8125 46.75 C1.07858836 46.26228464 5.83622625 46.09400718 10.75 46.25 C11.75 47.25 11.75 47.25 11.9375 50.1875 C11.75 53.25 11.75 53.25 9.75 55.25 C5.47500849 56.47030144 1.10459379 56.50177002 -3.3125 56.5625 C-4.01955078 56.59150391 -4.72660156 56.62050781 -5.45507812 56.65039062 C-8.75308497 56.69064799 -10.8496965 56.51708883 -13.62109375 54.66796875 C-17.56283233 48.81680285 -17.5955073 42.27597842 -17.734375 35.44921875 C-17.77053925 34.07283989 -17.77053925 34.07283989 -17.80743408 32.6686554 C-17.85548985 30.74169514 -17.89893179 28.81461483 -17.93798828 26.88745117 C-18.00017912 23.92897916 -18.08318424 20.9715731 -18.16796875 18.01367188 C-18.21218554 16.13804984 -18.25519713 14.26239892 -18.296875 12.38671875 C-18.32279724 11.50030197 -18.34871948 10.61388519 -18.37542725 9.7006073 C-18.41147855 7.55030062 -18.34034965 5.39871018 -18.25 3.25 C-13.94287646 -1.05712354 -5.78710701 0.10052047 0 0 Z " fill="#1B1B1C" transform="translate(80.25,120.75)"/>
<path d="M0 0 C2.86724686 0.57344937 3.8614515 0.8614515 6 3 C6.57042711 5.53295023 7.03549524 8.01000408 7.4375 10.5703125 C7.56310303 11.32537079 7.68870605 12.08042908 7.81811523 12.85836792 C8.21970116 15.27939568 8.61043649 17.70201116 9 20.125 C9.39119413 22.52625584 9.78475345 24.92708089 10.18188477 27.32736206 C10.42839052 28.82048887 10.67129973 30.31421573 10.90991211 31.80862427 C11.49064266 35.35725267 12.17782931 38.82852501 13.07421875 42.31201172 C13.9387375 45.75595167 14.33571854 48.47495537 14 52 C13.34 52.66 12.68 53.32 12 54 C10.68 54 9.36 54 8 54 C5.38592128 48.63809899 3.50771472 43.96564796 3 38 C-1.60100336 38.02694585 -5.68254281 38.34427613 -10 40 C-12.10479956 43.0191797 -13.10803399 45.73659075 -14.16796875 49.25 C-15 52 -15 52 -17 54 C-19.93453261 53.63318342 -20.86437246 53.13562754 -23 51 C-22.67526798 44.93833564 -21.53203944 38.55100954 -19 33 C-17.515 32.505 -17.515 32.505 -16 32 C-15.17130639 30.24939624 -15.17130639 30.24939624 -14.66015625 28.0859375 C-12.96328315 22.50339082 -10.30610421 17.68369494 -7.4375 12.625 C-6.94314453 11.73683594 -6.44878906 10.84867188 -5.93945312 9.93359375 C-4.04559849 6.54566976 -2.15399533 3.230993 0 0 Z " fill="#1B1B1C" transform="translate(156,121)"/>
<path d="M0 0 C1.8125 0.125 1.8125 0.125 4 1 C7.04969102 5.98967771 8.10370459 11.17522049 9.3125 16.8125 C11.04789417 24.60064367 13.17683526 32.01838231 16.20825195 39.40551758 C17.99808168 43.99591123 18.05285955 47.20639238 17 52 C14.525 52.495 14.525 52.495 12 53 C10.99267601 51.06629769 9.99436712 49.12789694 9 47.1875 C8.443125 46.10855469 7.88625 45.02960938 7.3125 43.91796875 C6 41 6 41 6 38 C5.32453125 38.144375 4.6490625 38.28875 3.953125 38.4375 C3.06109375 38.623125 2.1690625 38.80875 1.25 39 C-0.07257813 39.2784375 -0.07257813 39.2784375 -1.421875 39.5625 C-4 40 -4 40 -8 40 C-8.10957031 40.66386719 -8.21914063 41.32773438 -8.33203125 42.01171875 C-9.21136023 46.90879478 -9.99451714 50.90161428 -13 55 C-17.875 54.125 -17.875 54.125 -19 53 C-19.79826024 44.01957229 -16.79285093 35.5305297 -13.11474609 27.46679688 C-11.94768085 24.8842241 -10.84143878 22.28172111 -9.74609375 19.66796875 C-9.36646484 18.76755859 -8.98683594 17.86714844 -8.59570312 16.93945312 C-7.81599526 15.08682517 -7.04002119 13.23262185 -6.26757812 11.37695312 C-5.88923828 10.48298828 -5.51089844 9.58902344 -5.12109375 8.66796875 C-4.7852124 7.86641357 -4.44933105 7.0648584 -4.10327148 6.23901367 C-2.96077689 3.92039939 -1.61224476 2.01408259 0 0 Z " fill="#1C1C1C" transform="translate(319,121)"/>
<path d="M0 0 C2.77807617 -0.26464844 2.77807617 -0.26464844 6.29296875 -0.109375 C8.19852539 -0.03396484 8.19852539 -0.03396484 10.14257812 0.04296875 C11.49088716 0.11194516 12.83919443 0.18095586 14.1875 0.25 C16.16073242 0.32927734 16.16073242 0.32927734 18.17382812 0.41015625 C35.1470028 1.1470028 35.1470028 1.1470028 38 4 C38.23046875 5.875 38.23046875 5.875 38.1875 8 C38.18105469 8.70125 38.17460937 9.4025 38.16796875 10.125 C38 12 38 12 37 14 C31.72 14 26.44 14 21 14 C21.144375 16.47113281 21.28875 18.94226563 21.4375 21.48828125 C21.57725103 23.91768226 21.71592128 26.34714276 21.85449219 28.77661133 C21.9503711 30.44757477 22.04734957 32.11847554 22.14550781 33.78930664 C23.76804514 61.44694546 23.76804514 61.44694546 20 66 C17.5625 65.625 17.5625 65.625 15 65 C13.56905591 62.13811182 13.77948328 59.59873168 13.68359375 56.40234375 C13.66276733 55.73993179 13.64194092 55.07751984 13.6204834 54.39503479 C13.55449416 52.24263866 13.49570068 50.09011972 13.4375 47.9375 C13.39472377 46.472653 13.35183645 45.00780924 13.30883789 43.54296875 C13.02915195 33.69398391 12.86645061 23.85297719 13 14 C11.91332031 14.01675781 10.82664062 14.03351563 9.70703125 14.05078125 C5.95669935 13.99940684 3.4166858 13.50969838 0 12 C-2.31332486 8.53001271 -2.33957563 7.07490752 -2 3 C-1.34 2.01 -0.68 1.02 0 0 Z " fill="#1C1C1D" transform="translate(418,120)"/>
<path d="M0 0 C1.07302368 -0.01353516 1.07302368 -0.01353516 2.16772461 -0.02734375 C7.12676644 0.00176644 7.12676644 0.00176644 9.375 2.25 C9.6875 5.75 9.6875 5.75 9.375 9.25 C5.74304504 11.67130331 3.99150652 11.46022785 -0.3125 11.375 C-1.49199219 11.35695312 -2.67148438 11.33890625 -3.88671875 11.3203125 C-4.79035156 11.29710937 -5.69398438 11.27390625 -6.625 11.25 C-6.14909357 15.31288884 -5.66870488 19.37523557 -5.1875 23.4375 C-5.05279297 24.58798828 -4.91808594 25.73847656 -4.77929688 26.92382812 C-4.58110352 28.59155273 -4.58110352 28.59155273 -4.37890625 30.29296875 C-4.25845947 31.31414795 -4.1380127 32.33532715 -4.01391602 33.38745117 C-3.65364766 36.03914389 -3.15585623 38.62844287 -2.625 41.25 C-2.51352429 42.95583768 -2.45056901 44.66557371 -2.4375 46.375 C-2.42332031 47.22320312 -2.40914062 48.07140625 -2.39453125 48.9453125 C-2.625 51.25 -2.625 51.25 -4.625 54.25 C-7.125 54.625 -7.125 54.625 -9.625 54.25 C-11.89877308 50.83934037 -12.05433442 49.00316907 -12.44140625 44.96484375 C-12.56580078 43.71123047 -12.69019531 42.45761719 -12.81835938 41.16601562 C-12.94017578 39.85310547 -13.06199219 38.54019531 -13.1875 37.1875 C-13.31318359 35.90166016 -13.43886719 34.61582031 -13.56835938 33.29101562 C-13.81354905 30.77621678 -14.05535009 28.26108481 -14.29345703 25.74560547 C-14.7202884 21.24533188 -15.16990081 16.74748969 -15.625 12.25 C-16.45644531 12.28480469 -17.28789062 12.31960937 -18.14453125 12.35546875 C-19.77455078 12.39607422 -19.77455078 12.39607422 -21.4375 12.4375 C-22.51644531 12.47230469 -23.59539062 12.50710937 -24.70703125 12.54296875 C-27.625 12.25 -27.625 12.25 -29.57421875 11.17578125 C-31.24101047 8.12102914 -30.30865582 5.54397803 -29.625 2.25 C-19.76132957 1.10756868 -9.93880276 0.05208675 0 0 Z " fill="#1E1E1F" transform="translate(226.625,119.75)"/>
<path d="M0 0 C2.6645814 1.01070329 3.95195872 1.9399484 5.75 4.1875 C7.28820064 7.64845144 7.28837155 10.2511699 7 14 C6 15 6 15 3.625 15.1875 C1 15 1 15 -2 13 C-6.21006163 16.87986072 -7.73668922 21.35284893 -8.29296875 26.9453125 C-8.45066696 32.9378443 -8.37860356 37.93209466 -5 43 C-2.22513796 44.67090383 -2.22513796 44.67090383 1 44 C4.31665151 41.1616363 6.59452112 37.60821833 9 34 C13.875 34.875 13.875 34.875 15 36 C15.77953686 40.45449635 14.65633268 43.00347581 12.3125 46.6875 C9.34462146 50.78731361 7.12215694 53.48652617 1.93359375 54.33984375 C-3.27381235 54.70110204 -6.5344437 53.73683728 -10.56640625 50.421875 C-15.50561821 45.52303807 -17.23138471 39.10543513 -17.32910156 32.29052734 C-17.32088379 31.28046631 -17.32088379 31.28046631 -17.3125 30.25 C-17.30831055 29.54697754 -17.30412109 28.84395508 -17.29980469 28.11962891 C-17.11962371 19.76804912 -15.33198163 12.62458324 -10 6 C-7.24008837 3.5071766 -4.45824311 2.30852442 -1 1 C-0.67 0.67 -0.34 0.34 0 0 Z " fill="#1C1C1D" transform="translate(281,121)"/>
<path d="M0 0 C2.64 0 5.28 0 8 0 C8 19.47 8 38.94 8 59 C5.36 59 2.72 59 0 59 C0 39.53 0 20.06 0 0 Z " fill="#181819" transform="translate(247,115)"/>
<path d="M0 0 C1.87988281 0.28881836 1.87988281 0.28881836 4 1 C5.43946601 3.5307685 6.61941545 5.90101663 7.75 8.5625 C8.06582031 9.27341797 8.38164063 9.98433594 8.70703125 10.71679688 C9.48454043 12.47208274 10.24401855 14.23533543 11 16 C11.99 16 12.98 16 14 16 C14.66 10.72 15.32 5.44 16 0 C17.32 0 18.64 0 20 0 C21.98 3.63 23.96 7.26 26 11 C27.98 7.37 29.96 3.74 32 0 C33.32 0 34.64 0 36 0 C36.66 5.61 37.32 11.22 38 17 C38.66 17 39.32 17 40 17 C40 17.66 40 18.32 40 19 C37.03 19 34.06 19 31 19 C31 18.34 31 17.68 31 17 C31.66 17 32.32 17 33 17 C32.34 14.69 31.68 12.38 31 10 C29.68 12.64 28.36 15.28 27 18 C25.68 18 24.36 18 23 18 C21.02 14.535 21.02 14.535 19 11 C19 13.64 19 16.28 19 19 C13.72 19 8.44 19 3 19 C3.33 17.02 3.66 15.04 4 13 C1.69 13 -0.62 13 -3 13 C-3 14.98 -3 16.96 -3 19 C-4.98 19 -6.96 19 -9 19 C-9 18.34 -9 17.68 -9 17 C-8.34 17 -7.68 17 -7 17 C-6.82984375 16.443125 -6.6596875 15.88625 -6.484375 15.3125 C-4.76684063 9.90409391 -2.64657745 5.01937104 0 0 Z " fill="#1F1F20" transform="translate(40,222)"/>
<path d="M0 0 C2.29141286 -0.05384521 4.58318188 -0.09272087 6.875 -0.125 C8.78925781 -0.15980469 8.78925781 -0.15980469 10.7421875 -0.1953125 C14 0 14 0 16 2 C16.25 5 16.25 5 16 8 C15.34 8.66 14.68 9.32 14 10 C14.433125 10.48210937 14.86625 10.96421875 15.3125 11.4609375 C15.869375 12.09257812 16.42625 12.72421875 17 13.375 C17.556875 14.00148437 18.11375 14.62796875 18.6875 15.2734375 C20 17 20 17 20 19 C17.3125 19.375 17.3125 19.375 14 19 C11.83295905 17.18573316 10.61874997 15.38051466 9 13 C9 12.34 9 11.68 9 11 C8.34 11 7.68 11 7 11 C7.66 13.64 8.32 16.28 9 19 C6.03 19 3.06 19 0 19 C0 18.34 0 17.68 0 17 C0.66 17 1.32 17 2 17 C2 12.05 2 7.1 2 2 C1.34 2 0.68 2 0 2 C0 1.34 0 0.68 0 0 Z " fill="#202021" transform="translate(296,222)"/>
<path d="M0 0 C2.29141286 -0.05384521 4.58318188 -0.09272087 6.875 -0.125 C8.78925781 -0.15980469 8.78925781 -0.15980469 10.7421875 -0.1953125 C14 0 14 0 16 2 C16.25 5 16.25 5 16 8 C15.34 8.66 14.68 9.32 14 10 C14.433125 10.48210937 14.86625 10.96421875 15.3125 11.4609375 C15.869375 12.09257812 16.42625 12.72421875 17 13.375 C17.556875 14.00148437 18.11375 14.62796875 18.6875 15.2734375 C20 17 20 17 20 19 C17.3125 19.375 17.3125 19.375 14 19 C11.83295905 17.18573316 10.61874997 15.38051466 9 13 C9 12.34 9 11.68 9 11 C8.34 11 7.68 11 7 11 C7.66 13.64 8.32 16.28 9 19 C6.03 19 3.06 19 0 19 C0 18.34 0 17.68 0 17 C0.66 17 1.32 17 2 17 C2 12.05 2 7.1 2 2 C1.34 2 0.68 2 0 2 C0 1.34 0 0.68 0 0 Z " fill="#202021" transform="translate(199,222)"/>
<path d="M0 0 C1.93719378 -0.05406122 3.87481921 -0.09282025 5.8125 -0.125 C6.89144531 -0.14820313 7.97039062 -0.17140625 9.08203125 -0.1953125 C12 0 12 0 15 2 C14.79375 3.11375 14.5875 4.2275 14.375 5.375 C14.25125 6.57125 14.1275 7.7675 14 9 C14.66 9.66 15.32 10.32 16 11 C16.375 13.4375 16.375 13.4375 16 16 C13.65544882 18.36698708 12.329252 18.96801308 8.984375 19.29296875 C7.91703125 19.25816406 6.8496875 19.22335938 5.75 19.1875 C4.13351563 19.14689453 4.13351563 19.14689453 2.484375 19.10546875 C1.25460938 19.05326172 1.25460938 19.05326172 0 19 C0.495 17.515 0.495 17.515 1 16 C1.09485782 13.8350098 1.12988077 11.66706177 1.125 9.5 C1.12757812 8.3553125 1.13015625 7.210625 1.1328125 6.03125 C1.13684408 2.95320141 1.13684408 2.95320141 0 0 Z " fill="#2D2D2E" transform="translate(81,222)"/>
<path d="M0 0 C4.64973854 0.44787324 6.37027468 2.02185597 9.3125 5.5625 C10.00988281 6.38878906 10.70726562 7.21507812 11.42578125 8.06640625 C11.94527344 8.70449219 12.46476563 9.34257812 13 10 C13.33 7.36 13.66 4.72 14 2 C13.34 2 12.68 2 12 2 C12 1.34 12 0.68 12 0 C14.31 0 16.62 0 19 0 C19 0.66 19 1.32 19 2 C18.34 2 17.68 2 17 2 C17 7.61 17 13.22 17 19 C11.62099255 17.92419851 10.99140478 17.41338541 7.6875 13.4375 C6.64142578 12.19806641 6.64142578 12.19806641 5.57421875 10.93359375 C5.05472656 10.29550781 4.53523437 9.65742188 4 9 C3.67 11.64 3.34 14.28 3 17 C3.66 17 4.32 17 5 17 C5 17.66 5 18.32 5 19 C2.69 19 0.38 19 -2 19 C-1.505 17.515 -1.505 17.515 -1 16 C-0.77202438 13.26710707 -0.58331813 10.54957796 -0.4375 7.8125 C-0.39431641 7.06291016 -0.35113281 6.31332031 -0.30664062 5.54101562 C-0.20077315 3.69421625 -0.0999024 1.84713166 0 0 Z " fill="#212121" transform="translate(243,222)"/>
<path d="M0 0 C6.9259441 0.98942059 9.79732291 1.70364378 14 7 C14.8125 10.125 14.8125 10.125 14 13 C9.31929821 17.32964916 6.74154049 17.15730744 0 18 C0 12.06 0 6.12 0 0 Z " fill="#F6F6F6" transform="translate(351,132)"/>
<path d="M0 0 C3.3 0 6.6 0 10 0 C10 0.66 10 1.32 10 2 C9.34 2 8.68 2 8 2 C8.33 6.62 8.66 11.24 9 16 C10.65 15.67 12.3 15.34 14 15 C15.28446919 12.43106162 15.32977144 10.23423663 15.5625 7.375 C15.64628906 6.37210938 15.73007813 5.36921875 15.81640625 4.3359375 C15.87699219 3.56507813 15.93757812 2.79421875 16 2 C15.34 2 14.68 2 14 2 C14 1.34 14 0.68 14 0 C16.31 0 18.62 0 21 0 C21 0.66 21 1.32 21 2 C20.34 2 19.68 2 19 2 C19.04640625 2.80824219 19.0928125 3.61648437 19.140625 4.44921875 C19.43162233 13.06481828 19.43162233 13.06481828 17.5 17.25 C14.4589537 19.37873241 12.55567751 19.65810029 8.90234375 19.43359375 C6.01975787 18.77657726 4.71663768 17.33462725 3 15 C1.67770811 12.35541621 1.90322806 10.32238699 1.9375 7.375 C1.94652344 6.37210938 1.95554688 5.36921875 1.96484375 4.3359375 C1.98224609 3.17964844 1.98224609 3.17964844 2 2 C1.34 2 0.68 2 0 2 C0 1.34 0 0.68 0 0 Z " fill="#303031" transform="translate(219,222)"/>
<path d="M0 0 C3.3 0 6.6 0 10 0 C10 0.66 10 1.32 10 2 C9.34 2 8.68 2 8 2 C8.33 6.62 8.66 11.24 9 16 C10.65 15.67 12.3 15.34 14 15 C15.28446919 12.43106162 15.32977144 10.23423663 15.5625 7.375 C15.64628906 6.37210938 15.73007813 5.36921875 15.81640625 4.3359375 C15.87699219 3.56507813 15.93757812 2.79421875 16 2 C15.34 2 14.68 2 14 2 C14 1.34 14 0.68 14 0 C16.31 0 18.62 0 21 0 C21 0.66 21 1.32 21 2 C20.34 2 19.68 2 19 2 C19.04640625 2.80824219 19.0928125 3.61648437 19.140625 4.44921875 C19.43162233 13.06481828 19.43162233 13.06481828 17.5 17.25 C14.4589537 19.37873241 12.55567751 19.65810029 8.90234375 19.43359375 C6.01975787 18.77657726 4.71663768 17.33462725 3 15 C1.67770811 12.35541621 1.90322806 10.32238699 1.9375 7.375 C1.94652344 6.37210938 1.95554688 5.36921875 1.96484375 4.3359375 C1.98224609 3.17964844 1.98224609 3.17964844 2 2 C1.34 2 0.68 2 0 2 C0 1.34 0 0.68 0 0 Z " fill="#303031" transform="translate(177,222)"/>
<path d="M0 0 C1.88427734 0.29101562 1.88427734 0.29101562 4 1 C5.38913773 3.50865379 6.53352503 5.86790328 7.625 8.5 C9.36297833 13.55166103 9.36297833 13.55166103 13 17 C13 17.66 13 18.32 13 19 C9.7 19 6.4 19 3 19 C3.33 17.02 3.66 15.04 4 13 C1.69 13 -0.62 13 -3 13 C-3 14.98 -3 16.96 -3 19 C-4.98 19 -6.96 19 -9 19 C-9 18.34 -9 17.68 -9 17 C-8.34 17 -7.68 17 -7 17 C-6.82984375 16.443125 -6.6596875 15.88625 -6.484375 15.3125 C-4.76684063 9.90409391 -2.64657745 5.01937104 0 0 Z " fill="#2F2F30" transform="translate(40,222)"/>
<path d="M0 0 C2.44035465 0.3655424 3.65540215 0.55042297 5.18847656 2.55053711 C5.50268555 3.2028833 5.81689453 3.85522949 6.140625 4.52734375 C6.48867187 5.23697266 6.83671875 5.94660156 7.1953125 6.67773438 C7.54335937 7.42345703 7.89140625 8.16917969 8.25 8.9375 C8.61351562 9.67935547 8.97703125 10.42121094 9.3515625 11.18554688 C12 16.67657425 12 16.67657425 12 19 C9.03 19 6.06 19 3 19 C3.33 17.02 3.66 15.04 4 13 C1.69 13 -0.62 13 -3 13 C-3 14.98 -3 16.96 -3 19 C-4.98 19 -6.96 19 -9 19 C-9 18.34 -9 17.68 -9 17 C-8.34 17 -7.68 17 -7 17 C-6.82984375 16.443125 -6.6596875 15.88625 -6.484375 15.3125 C-4.76684063 9.90409391 -2.64657745 5.01937104 0 0 Z " fill="#2E2E2F" transform="translate(145,222)"/>
<path d="M0 0 C2.44035465 0.3655424 3.65540215 0.55042297 5.18847656 2.55053711 C5.50268555 3.2028833 5.81689453 3.85522949 6.140625 4.52734375 C6.48867187 5.23697266 6.83671875 5.94660156 7.1953125 6.67773438 C7.54335937 7.42345703 7.89140625 8.16917969 8.25 8.9375 C8.61351563 9.67935547 8.97703125 10.42121094 9.3515625 11.18554688 C12 16.67657425 12 16.67657425 12 19 C9.03 19 6.06 19 3 19 C3.33 17.02 3.66 15.04 4 13 C1.69 13 -0.62 13 -3 13 C-3 14.98 -3 16.96 -3 19 C-4.98 19 -6.96 19 -9 19 C-9 18.34 -9 17.68 -9 17 C-8.34 17 -7.68 17 -7 17 C-6.82984375 16.443125 -6.6596875 15.88625 -6.484375 15.3125 C-4.76684063 9.90409391 -2.64657745 5.01937104 0 0 Z " fill="#2E2E2F" transform="translate(107,222)"/>
<path d="M0 0 C4.29 0 8.58 0 13 0 C13 1.32 13 2.64 13 4 C11.02 3.34 9.04 2.68 7 2 C7 3.98 7 5.96 7 8 C9.31 7.34 11.62 6.68 14 6 C14 7.98 14 9.96 14 12 C13.01 12 12.02 12 11 12 C11 11.34 11 10.68 11 10 C9.68 10 8.36 10 7 10 C7 11.98 7 13.96 7 16 C9.64 15.34 12.28 14.68 15 14 C15 15.65 15 17.3 15 19 C10.05 19 5.1 19 0 19 C0.495 17.515 0.495 17.515 1 16 C1.09485782 13.8350098 1.12988077 11.66706177 1.125 9.5 C1.12757813 8.3553125 1.13015625 7.210625 1.1328125 6.03125 C1.13684408 2.95320141 1.13684408 2.95320141 0 0 Z " fill="#1C1C1D" transform="translate(280,222)"/>
<path d="M0 0 C1.134375 0.020625 2.26875 0.04125 3.4375 0.0625 C3.7675 1.7125 4.0975 3.3625 4.4375 5.0625 C3.4475 5.5575 3.4475 5.5575 2.4375 6.0625 C2.4375 6.7225 2.4375 7.3825 2.4375 8.0625 C3.0975 8.0625 3.7575 8.0625 4.4375 8.0625 C4.49160687 9.83299689 4.53034119 11.60396849 4.5625 13.375 C4.58570313 14.36113281 4.60890625 15.34726563 4.6328125 16.36328125 C4.4375 19.0625 4.4375 19.0625 2.4375 22.0625 C-0.1875 22.25 -0.1875 22.25 -2.5625 22.0625 C-3.94476016 19.29797967 -3.65775387 17.0163637 -3.625 13.9375 C-3.61597656 12.84179688 -3.60695312 11.74609375 -3.59765625 10.6171875 C-3.58605469 9.77414063 -3.57445312 8.93109375 -3.5625 8.0625 C-2.9025 8.0625 -2.2425 8.0625 -1.5625 8.0625 C-1.5625 7.4025 -1.5625 6.7425 -1.5625 6.0625 C-2.2225 5.7325 -2.8825 5.4025 -3.5625 5.0625 C-4.25 3.0625 -4.25 3.0625 -4.5625 1.0625 C-3.5625 0.0625 -3.5625 0.0625 0 0 Z " fill="#DBDBDB" transform="translate(230.5625,215.9375)"/>
<path d="M0 0 C1.134375 0.020625 2.26875 0.04125 3.4375 0.0625 C3.7675 1.7125 4.0975 3.3625 4.4375 5.0625 C3.4475 5.5575 3.4475 5.5575 2.4375 6.0625 C2.4375 6.7225 2.4375 7.3825 2.4375 8.0625 C3.0975 8.0625 3.7575 8.0625 4.4375 8.0625 C4.49160687 9.83299689 4.53034119 11.60396849 4.5625 13.375 C4.58570313 14.36113281 4.60890625 15.34726563 4.6328125 16.36328125 C4.4375 19.0625 4.4375 19.0625 2.4375 22.0625 C-0.1875 22.25 -0.1875 22.25 -2.5625 22.0625 C-3.94476016 19.29797967 -3.65775387 17.0163637 -3.625 13.9375 C-3.61597656 12.84179688 -3.60695312 11.74609375 -3.59765625 10.6171875 C-3.58605469 9.77414063 -3.57445312 8.93109375 -3.5625 8.0625 C-2.9025 8.0625 -2.2425 8.0625 -1.5625 8.0625 C-1.5625 7.4025 -1.5625 6.7425 -1.5625 6.0625 C-2.2225 5.7325 -2.8825 5.4025 -3.5625 5.0625 C-4.25 3.0625 -4.25 3.0625 -4.5625 1.0625 C-3.5625 0.0625 -3.5625 0.0625 0 0 Z " fill="#DBDBDB" transform="translate(188.5625,215.9375)"/>
<path d="M0 0 C2.97 0 5.94 0 9 0 C9 0.66 9 1.32 9 2 C8.34 2 7.68 2 7 2 C7 6.62 7 11.24 7 16 C8.65 16 10.3 16 12 16 C12 15.34 12 14.68 12 14 C12.99 14 13.98 14 15 14 C14.67 15.65 14.34 17.3 14 19 C9.05 19 4.1 19 -1 19 C-1 18.34 -1 17.68 -1 17 C-0.34 17 0.32 17 1 17 C0.67 11.39 0.34 5.78 0 0 Z " fill="#2C2C2D" transform="translate(264,222)"/>
<path d="M0 0 C2.97 0 5.94 0 9 0 C9 0.66 9 1.32 9 2 C8.34 2 7.68 2 7 2 C7 6.62 7 11.24 7 16 C8.65 16 10.3 16 12 16 C12 15.34 12 14.68 12 14 C12.99 14 13.98 14 15 14 C14.67 15.65 14.34 17.3 14 19 C9.38 19 4.76 19 0 19 C0 12.73 0 6.46 0 0 Z " fill="#2B2B2C" transform="translate(121,222)"/>
<path d="M0 0 C2.97 0 5.94 0 9 0 C9 0.66 9 1.32 9 2 C8.34 2 7.68 2 7 2 C7.04640625 3.16917969 7.0928125 4.33835938 7.140625 5.54296875 C7.17815594 7.0911202 7.21455469 8.63929939 7.25 10.1875 C7.30027344 11.34088867 7.30027344 11.34088867 7.3515625 12.51757812 C7.42017628 16.51433083 7.30075497 18.51063599 5.15625 22 C2.72986241 24.2505624 1.25948 24.72837667 -2 25 C-2 23.68 -2 22.36 -2 21 C-1.01 20.67 -0.02 20.34 1 20 C1.495 11.09 1.495 11.09 2 2 C1.34 2 0.68 2 0 2 C0 1.34 0 0.68 0 0 Z " fill="#202020" transform="translate(159,222)"/>
<path d="M0 0 C2.97 0 5.94 0 9 0 C8.67 0.99 8.34 1.98 8 3 C7.90514218 5.1649902 7.87011923 7.33293823 7.875 9.5 C7.87242187 10.6446875 7.86984375 11.789375 7.8671875 12.96875 C7.86315592 16.04679859 7.86315592 16.04679859 9 19 C6.03 19 3.06 19 0 19 C0.495 17.515 0.495 17.515 1 16 C1.09485782 13.8350098 1.12988077 11.66706177 1.125 9.5 C1.12757813 8.3553125 1.13015625 7.210625 1.1328125 6.03125 C1.13684408 2.95320141 1.13684408 2.95320141 0 0 Z " fill="#1A1A1B" transform="translate(317,222)"/>
<path d="M0 0 C1.66611905 -0.042721 3.33382885 -0.04063832 5 0 C6 1 6 1 6.0625 3.5625 C6.041875 4.366875 6.02125 5.17125 6 6 C3.625 6.625 3.625 6.625 1 7 C0.34 6.34 -0.32 5.68 -1 5 C-0.625 2.375 -0.625 2.375 0 0 Z " fill="#1D1D1D" transform="translate(248,104)"/>
<path d="M0 0 C0.33 0 0.66 0 1 0 C1.33 3.3 1.66 6.6 2 10 C-0.31 10.33 -2.62 10.66 -5 11 C-3.35 7.37 -1.7 3.74 0 0 Z " fill="#D6D6D6" transform="translate(155,140)"/>
<path d="M0 0 C0.33 0 0.66 0 1 0 C1.33 3.3 1.66 6.6 2 10 C0.02 10.33 -1.96 10.66 -4 11 C-3.5247412 9.35303396 -3.04468109 7.70745272 -2.5625 6.0625 C-2.29566406 5.14597656 -2.02882813 4.22945312 -1.75390625 3.28515625 C-1 1 -1 1 0 0 Z " fill="#E4E4E4" transform="translate(319,140)"/>
<path d="M0 0 C2.31 0 4.62 0 7 0 C7 0.66 7 1.32 7 2 C6.34 2 5.68 2 5 2 C5 4.64 5 7.28 5 10 C4.34 9.67 3.68 9.34 3 9 C2.66666667 7 2.33333333 5 2 3 C1.34 2.67 0.68 2.34 0 2 C0 1.34 0 0.68 0 0 Z " fill="#171818" transform="translate(233,222)"/>
<path d="M0 0 C2.31 0 4.62 0 7 0 C7 0.66 7 1.32 7 2 C6.34 2 5.68 2 5 2 C5 4.64 5 7.28 5 10 C4.34 9.67 3.68 9.34 3 9 C2.66666667 7 2.33333333 5 2 3 C1.34 2.67 0.68 2.34 0 2 C0 1.34 0 0.68 0 0 Z " fill="#171818" transform="translate(191,222)"/>
<path d="M0 0 C0.66 0 1.32 0 2 0 C2 1.65 2 3.3 2 5 C-1.96 5 -5.92 5 -10 5 C-10 4.67 -10 4.34 -10 4 C-8.88625 3.814375 -8.88625 3.814375 -7.75 3.625 C-4.81963956 2.95900899 -2.16552089 2.16552089 0 0 Z " fill="#353535" transform="translate(293,236)"/>
<path d="M0 0 C2.86724686 0.57344937 3.8614515 0.8614515 6 3 C5.01 4.485 5.01 4.485 4 6 C2.68 6 1.36 6 0 6 C0 4.02 0 2.04 0 0 Z " fill="#EBEBEB" transform="translate(287,224)"/>
<path d="M0 0 C1.32 0.33 2.64 0.66 4 1 C3.67 2.98 3.34 4.96 3 7 C2.01 7 1.02 7 0 7 C0 4.69 0 2.38 0 0 Z " fill="#C5C5C5" transform="translate(303,224)"/>
<path d="M0 0 C1.32 0.33 2.64 0.66 4 1 C3.67 2.98 3.34 4.96 3 7 C2.01 7 1.02 7 0 7 C0 4.69 0 2.38 0 0 Z " fill="#C5C5C5" transform="translate(206,224)"/>
<path d="M0 0 C0.33 0 0.66 0 1 0 C1 1.98 1 3.96 1 6 C1.66 6 2.32 6 3 6 C3 6.66 3 7.32 3 8 C1.02 8 -0.96 8 -3 8 C-1.125 1.125 -1.125 1.125 0 0 Z " fill="#1A1A1B" transform="translate(56,233)"/>
<path d="M0 0 C1.98 0.99 1.98 0.99 4 2 C3.67 3.65 3.34 5.3 3 7 C2.01 7 1.02 7 0 7 C0 4.69 0 2.38 0 0 Z " fill="#E2E2E2" transform="translate(88,232)"/>
<path d="M0 0 C2 3 2 3 2 5 C0.02 5 -1.96 5 -4 5 C-4 4.34 -4 3.68 -4 3 C-3.34 3 -2.68 3 -2 3 C-2 2.34 -2 1.68 -2 1 C-1.34 0.67 -0.68 0.34 0 0 Z " fill="#1E1E1E" transform="translate(140,236)"/>
<path d="M0 0 C2 3 2 3 2 5 C0.02 5 -1.96 5 -4 5 C-4 4.34 -4 3.68 -4 3 C-3.34 3 -2.68 3 -2 3 C-2 2.34 -2 1.68 -2 1 C-1.34 0.67 -0.68 0.34 0 0 Z " fill="#1E1E1E" transform="translate(102,236)"/>
<path d="M0 0 C2 3 2 3 2 5 C0.02 5 -1.96 5 -4 5 C-4 4.34 -4 3.68 -4 3 C-3.34 3 -2.68 3 -2 3 C-2 2.34 -2 1.68 -2 1 C-1.34 0.67 -0.68 0.34 0 0 Z " fill="#1E1E1E" transform="translate(35,236)"/>
<path d="M0 0 C1.90401138 1.90401138 2.93520439 3.33425686 3.19921875 6.046875 C3.1886578 8.03233273 3.09915043 10.0169914 3 12 C2.67 12 2.34 12 2 12 C1.67 10.35 1.34 8.7 1 7 C0.67 7 0.34 7 0 7 C0 4.69 0 2.38 0 0 Z " fill="#5F5F5F" transform="translate(55,227)"/>
</svg>
